<?xml version="1.0" encoding="UTF-8"?>
<svg width="16" height="16" fill="currentColor" version="1.1" viewBox="0 0 16 16" xmlns="http://www.w3.org/2000/svg" xmlns:xlink="http://www.w3.org/1999/xlink">
 <g>
  <path d="m12.863 4.8008-1.3906 2.4082-0.16211 0.2793-0.14453 0.25-1.082 1.875h1.1543l0.64844-1.125h3.1055v-1h-2.5273l1.2637-2.1875z" color="#000000" style="-inkscape-stroke:none"/>
  <path d="m7.661 2.1887 1.3903 2.4084 0.16082 0.28004 0.14424 0.25017 1.0828 1.8746 0.57715-0.99965-0.65006-1.1241 1.5527-2.6894-0.86602-0.5-1.2637 2.1887-1.2626-2.1881z" color="#000000" style="-inkscape-stroke:none"/>
  <path d="m2.7977 5.3879 2.7809 2.149e-4 0.32293 7.421e-4 0.28877 1.676e-4 2.1648-4.33e-4 -0.57715-0.99965-1.2985 9.357e-4 -1.5527-2.6894-0.86603 0.5 1.2637 2.1887-2.5263-6.22e-4z" color="#000000" style="-inkscape-stroke:none"/>
  <path d="m3.1367 11.199 1.3906-2.4082 0.16211-0.2793 0.14453-0.25 1.082-1.875-1.1543 6e-7 -0.64844 1.125-3.1055 5e-7 -3e-7 1 2.5273 2e-7 -1.2637 2.1875z" color="#000000" style="-inkscape-stroke:none"/>
  <path d="m8.339 13.811-1.3903-2.4084-0.16082-0.28004-0.14424-0.25017-1.0828-1.8746-0.57715 0.99965 0.65006 1.1241-1.5527 2.6894 0.86602 0.5 1.2637-2.1887 1.2626 2.1881z" color="#000000" style="-inkscape-stroke:none"/>
  <path d="m13.202 10.612-2.7809-2.15e-4 -0.32293-7.42e-4 -0.28877-1.67e-4 -2.1648 4.33e-4 0.57715 0.99965 1.2985-9.36e-4 1.5527 2.6894 0.86602-0.5-1.2637-2.1887 2.5263 6.22e-4z" color="#000000" style="-inkscape-stroke:none"/>
 </g>
</svg>
